<svg width="86" height="86" viewBox="0 0 86 86" fill="none" xmlns="http://www.w3.org/2000/svg">
<g clip-path="url(#clip0_29_448)">
<path d="M73.4057 73.4056C90.1983 56.613 90.1983 29.387 73.4057 12.5944C56.6132 -4.19813 29.3871 -4.19814 12.5946 12.5944C-4.19799 29.387 -4.19799 56.613 12.5946 73.4056C29.3871 90.1981 56.6132 90.1981 73.4057 73.4056Z" fill="#365EC7"/>
<path d="M28.4829 66.8723L21.1582 66.8252C20.4482 66.8207 19.8759 66.2411 19.8804 65.5301L20.0624 37.3335C20.067 36.6235 20.6466 36.0511 21.3575 36.0557L28.6822 36.1028C29.3922 36.1073 29.9645 36.6869 29.96 37.3978L29.778 65.5944C29.7734 66.3045 29.1938 66.8768 28.4829 66.8723Z" fill="white"/>
<path d="M61.7395 34.9925L48.5328 34.9073C50.3042 28.4656 51.4761 20.3729 46.3022 19.5289C44.0255 19.1576 42.1499 20.8502 42.1382 22.6877C42.1382 22.6877 40.6176 31.1019 33.657 35.4661C33.3554 35.6481 33.0819 35.8655 32.8392 36.11C32.8229 36.1227 32.8129 36.1308 32.8129 36.1308C32.8129 36.1308 32.8157 36.1326 32.8166 36.1326C32.1808 36.782 31.7769 37.626 31.7199 38.5588C31.7144 38.6204 31.709 38.682 31.7081 38.7445V38.758L31.5523 62.8096C31.5396 64.8301 33.302 66.4801 35.49 66.4937L56.86 66.6323C59.048 66.6468 60.8321 65.0194 60.8457 62.9989L60.8493 62.3994C60.862 60.379 59.0996 58.7289 56.9107 58.7153L59.3577 58.7307C61.6417 58.7452 63.5037 57.0481 63.5173 54.9389L63.5191 54.6599C63.5327 52.5507 61.6924 50.8291 59.4084 50.8146L60.4128 50.821C62.7348 50.8364 64.6285 49.1103 64.6421 46.9657V46.8136C64.6566 44.6691 62.7855 42.9185 60.4644 42.904L61.6861 42.9122C64.0534 42.9275 65.9842 41.1679 65.9978 38.9808C66.0123 36.7947 64.1041 35.0097 61.7368 34.9943L61.7395 34.9925Z" fill="white"/>
</g>
<defs>
<clipPath id="clip0_29_448">
<rect width="86" height="86" fill="white"/>
</clipPath>
</defs>
</svg>
