<svg width="86" height="86" viewBox="0 0 86 86" fill="none" xmlns="http://www.w3.org/2000/svg">
<g clip-path="url(#clip0_30_517)">
<path d="M73.4062 73.4056C90.1988 56.6131 90.1988 29.387 73.4062 12.5944C56.6137 -4.1981 29.3876 -4.19811 12.595 12.5944C-4.1975 29.387 -4.1975 56.6131 12.595 73.4056C29.3876 90.1982 56.6137 90.1982 73.4062 73.4056Z" fill="#E67C00"/>
<path d="M48.3988 20.9091L47.5401 52.4815H39.4819L38.6012 20.9091H48.3988ZM43.511 66.5724C42.0579 66.5724 40.8103 66.0587 39.7681 65.0312C38.726 63.9891 38.2122 62.7415 38.2269 61.2884C38.2122 59.8499 38.726 58.617 39.7681 57.5895C40.8103 56.562 42.0579 56.0483 43.511 56.0483C44.9054 56.0483 46.131 56.562 47.1879 57.5895C48.2447 58.617 48.7804 59.8499 48.7951 61.2884C48.7804 62.2571 48.5236 63.1451 48.0245 63.9524C47.5401 64.745 46.9016 65.3835 46.109 65.8679C45.3164 66.3376 44.4504 66.5724 43.511 66.5724Z" fill="white"/>
</g>
<defs>
<clipPath id="clip0_30_517">
<rect width="86" height="86" fill="white"/>
</clipPath>
</defs>
</svg>
