<svg width="571" height="362" viewBox="0 0 571 362" fill="none" xmlns="http://www.w3.org/2000/svg">
<g clip-path="url(#clip0_32_420)">
<path d="M206.269 328.911H163.803" stroke="white" stroke-linecap="round" stroke-linejoin="round"/>
<path d="M323.115 328.911H292.1" stroke="white" stroke-linecap="round" stroke-linejoin="round"/>
<path d="M309.62 331.865H300.047" stroke="white" stroke-linecap="round" stroke-linejoin="round"/>
<path d="M193.83 332.799H183.694" stroke="white" stroke-linecap="round" stroke-linejoin="round"/>
<path d="M571 318.232H550.143C550.143 318.232 566.883 278.671 559.521 285.678C551.269 293.533 549.758 302.471 547.246 312.473C546.729 314.533 545.861 295.207 538.25 295.207C534.877 295.207 544.708 318.234 544.708 318.234H536.511C536.511 318.234 535.208 312.498 528.774 311.546C522.339 310.594 534.748 318.234 534.748 318.234H507.663" stroke="#5179E2" stroke-miterlimit="10"/>
<path d="M472.358 325.185H154.482C154.482 325.185 168.29 297.175 191.192 283.909C162.447 279.663 158.779 290.139 158.779 290.139C172.015 247.628 139.745 181.145 113.215 229.088C71.9622 186.3 26.7221 189.33 51.3298 257.065C70.4392 309.664 139.747 325.183 139.747 325.183H0" stroke="#5179E2" stroke-width="2" stroke-miterlimit="10"/>
<path d="M127.07 232.366C127.07 232.366 130.579 299.702 142.531 315.655C97.809 297.604 70.4392 239.568 70.4392 239.568" stroke="#5179E2" stroke-width="2" stroke-miterlimit="10"/>
<path d="M113.215 229.088C113.215 229.088 102.27 251.333 114.903 278.148" stroke="#5179E2" stroke-width="2" stroke-miterlimit="10"/>
<path d="M86.6058 221.249C76.3459 244.571 100.299 283.906 100.299 283.906" stroke="#5179E2" stroke-width="2" stroke-miterlimit="10"/>
<path d="M142.531 264.383C135.772 269.612 133.824 290.136 133.824 290.136" stroke="#5179E2" stroke-width="2" stroke-miterlimit="10"/>
<path d="M81.0041 296.735C50.0861 295.796 43.6819 311.041 43.6819 311.041C43.6819 311.041 86.0308 325.183 106.485 325.183" stroke="#5179E2" stroke-width="2" stroke-miterlimit="10"/>
<path d="M106.485 317.749C57.4595 295.62 43.6819 311.041 43.6819 311.041" stroke="#5179E2" stroke-width="2" stroke-miterlimit="10"/>
<path d="M116.428 336.244H70.4392" stroke="#5179E2" stroke-width="2" stroke-miterlimit="10"/>
<path d="M133.946 342.78H106.858" stroke="#5179E2" stroke-width="2" stroke-miterlimit="10"/>
<path d="M452.293 328.911H437.668" stroke="#5179E2" stroke-width="2" stroke-miterlimit="10"/>
<path d="M433.904 333.579H404.716" stroke="#5179E2" stroke-width="2" stroke-miterlimit="10"/>
</g>
<path d="M476.447 265.945L469.145 273.259L476.447 280.574L483.748 273.259L476.447 265.945Z" fill="#5179E2"/>
<path d="M143.597 218.059L136.296 225.373L143.597 232.688L150.898 225.373L143.597 218.059Z" fill="#5179E2"/>
<path d="M420.059 80.2139L416.496 83.7841L420.059 87.3544L423.623 83.7841L420.059 80.2139Z" fill="#5179E2"/>
<path d="M329.632 142.832L326.068 146.402L329.632 149.972L333.196 146.402L329.632 142.832Z" fill="#5179E2"/>
<path d="M486.876 128.286L483.313 131.856L486.876 135.426L490.44 131.856L486.876 128.286Z" fill="#5179E2"/>
<path d="M70.763 191.432L67.1993 195.003L70.763 198.573L74.3268 195.003L70.763 191.432Z" fill="#5179E2"/>
<path d="M175.107 197.461L171.543 201.032L175.107 204.602L178.67 201.032L175.107 197.461Z" fill="#5179E2"/>
<g clip-path="url(#clip1_32_420)">
<path d="M255.645 112.06C247.353 114.499 225.822 125.951 225.822 125.951C225.822 125.951 212.475 98.6277 209.913 93.7966C208.518 91.1675 206.751 90.6819 205.042 91.2921C201.323 87.0866 193.473 77.3381 187.771 77.216C186.073 77.1804 185.411 78.5814 185.628 79.4841C187.074 85.4771 184.617 89.0164 188.775 95.429C192.219 100.738 198.993 102.93 200.27 105.981C201.289 108.414 208.84 153.536 218.943 153.773C232.581 154.093 258.807 139.297 258.807 139.297C258.807 139.297 263.939 109.625 255.647 112.06H255.645Z" fill="#FDB78F"/>
<path d="M195.997 95.9426L203.274 92.4134C204.296 91.9176 204.789 90.7454 204.429 89.675L187.725 66.2547C185.999 66.4733 185.452 67.8642 185.712 68.6346L194.392 95.2739C194.615 95.935 195.368 96.2503 195.999 95.9452L195.997 95.9426Z" fill="white"/>
<path d="M196.589 93.906L203.21 91.0531C204.232 90.5573 204.664 90.3488 204.304 89.2758L197.016 67.3226C196.719 66.4428 196.17 66.2852 195.24 66.2394H188.011C187.197 66.2013 186.831 66.6793 187.089 67.4497L195.381 93.4C195.603 94.0611 195.961 94.2111 196.592 93.906H196.589Z" fill="#15B1FF"/>
<path d="M204.301 89.2783L197.013 67.3251C196.717 66.4454 196.168 66.2877 195.238 66.2419H188.009C197.861 69.8779 204.664 90.3488 204.304 89.2783H204.301Z" fill="#17D3FF"/>
<path d="M202.595 95.5841C202.577 93.1355 203.453 91.5743 204.858 89.6038C205.484 88.7266 200.209 84.0074 202.492 80.8393C204.679 80.079 209.941 85.6779 210.511 88.3172C211.502 92.9194 212.204 98.9251 212.204 98.9251L225.822 125.948L224.082 136.709" fill="#FDB78F"/>
<path d="M202.595 95.5841C202.577 93.1355 203.453 91.5743 204.858 89.6038C205.484 88.7266 200.209 84.0074 202.492 80.8393C204.679 80.079 209.941 85.6779 210.511 88.3172C211.502 92.9194 212.204 98.9251 212.204 98.9251L225.822 125.948L224.082 136.709" stroke="#E58863" stroke-linecap="round" stroke-linejoin="round"/>
<path d="M497.706 39.5085C506.184 39.5085 513.058 46.3508 513.058 54.7898V302.314C513.058 310.753 506.184 317.595 497.706 317.595" stroke="#6E8FE7" stroke-width="4" stroke-miterlimit="10"/>
<path d="M486.523 39.5085H370.977C362.498 39.5085 355.625 46.3502 355.625 54.7898V302.312C355.625 310.751 362.498 317.593 370.977 317.593H486.523C495.002 317.593 501.875 310.751 501.875 302.312V54.7898C501.875 46.3502 495.002 39.5085 486.523 39.5085Z" fill="#668EF8" stroke="white" stroke-linecap="round" stroke-linejoin="round"/>
<path d="M484.372 186.69H371.508C368.203 186.69 365.523 189.357 365.523 192.647V215.152C365.523 218.442 368.203 221.11 371.508 221.11H484.372C487.678 221.11 490.357 218.442 490.357 215.152V192.647C490.357 189.357 487.678 186.69 484.372 186.69Z" stroke="#5C63C6" stroke-width="2" stroke-linecap="round" stroke-linejoin="round"/>
<path d="M423.442 208.18H396.01C393.634 208.18 391.708 206.263 391.708 203.898C391.708 201.534 393.634 199.617 396.01 199.617H423.442C425.817 199.617 427.743 201.534 427.743 203.898C427.743 206.263 425.817 208.18 423.442 208.18Z" stroke="#5C63C6" stroke-width="2" stroke-miterlimit="10"/>
<path d="M481.746 203.898L476.714 197.91" stroke="#5C63C6" stroke-width="2" stroke-linecap="round" stroke-linejoin="round"/>
<path d="M481.746 203.898L476.714 209.886" stroke="#5C63C6" stroke-width="2" stroke-linecap="round" stroke-linejoin="round"/>
<path d="M381.381 208.114C383.72 208.114 385.616 206.227 385.616 203.898C385.616 201.57 383.72 199.683 381.381 199.683C379.042 199.683 377.146 201.57 377.146 203.898C377.146 206.227 379.042 208.114 381.381 208.114Z" stroke="#5C63C6" stroke-width="2" stroke-miterlimit="10"/>
<path d="M441.407 234.626H481.302C486.298 234.626 490.355 238.664 490.355 243.637V283.349C490.355 288.322 486.298 292.36 481.302 292.36H441.407C436.411 292.36 432.354 288.322 432.354 283.349V243.637C432.354 238.664 436.411 234.626 441.407 234.626V234.626Z" stroke="#5C63C6" stroke-width="2" stroke-miterlimit="10"/>
<path d="M374.576 292.362H414.473C419.473 292.362 423.526 288.328 423.526 283.351V243.637C423.526 238.661 419.473 234.626 414.473 234.626H374.576C369.576 234.626 365.523 238.661 365.523 243.637V283.351C365.523 288.328 369.576 292.362 374.576 292.362Z" stroke="#5C63C6" stroke-width="6" stroke-miterlimit="10"/>
<path d="M408.057 50.9835C409.29 50.9835 410.289 49.9886 410.289 48.7612C410.289 47.5339 409.29 46.539 408.057 46.539C406.823 46.539 405.824 47.5339 405.824 48.7612C405.824 49.9886 406.823 50.9835 408.057 50.9835Z" stroke="white" stroke-width="4" stroke-linecap="round" stroke-linejoin="round"/>
<path d="M417.104 48.7612H440.395" stroke="white" stroke-width="4" stroke-linecap="round" stroke-linejoin="round"/>
<path d="M417.191 152.308H378.262C373.522 152.308 369.679 156.132 369.679 160.85C369.679 165.568 373.522 169.392 378.262 169.392H417.191C421.931 169.392 425.774 165.568 425.774 160.85C425.774 156.132 421.931 152.308 417.191 152.308Z" fill="#15B1FF"/>
<path d="M387.003 159.206H388.078V162.962H390.411V163.834H387.003V159.206Z" fill="white"/>
<path d="M391.879 163.602C391.491 163.397 391.19 163.109 390.97 162.746C390.75 162.382 390.641 161.973 390.641 161.52C390.641 161.067 390.75 160.658 390.97 160.295C391.19 159.931 391.491 159.646 391.879 159.438C392.268 159.232 392.702 159.127 393.185 159.127C393.667 159.127 394.102 159.232 394.487 159.438C394.873 159.646 395.175 159.931 395.397 160.295C395.619 160.658 395.729 161.067 395.729 161.52C395.729 161.973 395.619 162.382 395.397 162.746C395.175 163.109 394.873 163.394 394.487 163.602C394.102 163.811 393.667 163.913 393.185 163.913C392.702 163.913 392.268 163.808 391.879 163.602ZM393.928 162.812C394.15 162.687 394.324 162.512 394.449 162.285C394.574 162.062 394.638 161.805 394.638 161.518C394.638 161.23 394.574 160.976 394.449 160.75C394.324 160.526 394.15 160.35 393.928 160.223C393.706 160.099 393.458 160.035 393.185 160.035C392.911 160.035 392.664 160.099 392.441 160.223C392.219 160.348 392.045 160.523 391.92 160.75C391.795 160.973 391.731 161.23 391.731 161.518C391.731 161.805 391.795 162.059 391.92 162.285C392.045 162.509 392.219 162.685 392.441 162.812C392.664 162.936 392.911 163 393.185 163C393.458 163 393.706 162.936 393.928 162.812Z" fill="white"/>
<path d="M399.681 161.449H400.664V163.325C400.411 163.516 400.12 163.661 399.788 163.763C399.456 163.864 399.121 163.915 398.784 163.915C398.301 163.915 397.867 163.814 397.481 163.608C397.096 163.402 396.794 163.119 396.574 162.756C396.355 162.392 396.245 161.98 396.245 161.523C396.245 161.065 396.355 160.653 396.574 160.289C396.794 159.926 397.098 159.641 397.489 159.438C397.88 159.232 398.317 159.13 398.804 159.13C399.211 159.13 399.581 159.199 399.913 159.336C400.245 159.473 400.524 159.672 400.751 159.931L400.061 160.567C399.729 160.218 399.328 160.045 398.858 160.045C398.562 160.045 398.299 160.106 398.069 160.231C397.839 160.356 397.66 160.528 397.53 160.752C397.402 160.976 397.338 161.235 397.338 161.525C397.338 161.815 397.402 162.067 397.53 162.293C397.658 162.517 397.836 162.692 398.064 162.819C398.291 162.944 398.552 163.008 398.843 163.008C399.152 163.008 399.433 162.941 399.681 162.809V161.454V161.449Z" fill="white"/>
<path d="M402.008 159.206H403.083V163.834H402.008V159.206Z" fill="white"/>
<path d="M408.447 159.206V163.834H407.564L405.247 161.024V163.834H404.184V159.206H405.073L407.385 162.016V159.206H408.447Z" fill="white"/>
<path d="M479.238 152.308H440.309C435.568 152.308 431.726 156.132 431.726 160.85C431.726 165.568 435.568 169.392 440.309 169.392H479.238C483.978 169.392 487.821 165.568 487.821 160.85C487.821 156.132 483.978 152.308 479.238 152.308Z" stroke="white" stroke-linecap="round" stroke-linejoin="round"/>
<path d="M445.249 163.14C444.886 163.048 444.597 162.926 444.378 162.774L444.827 161.823C445.039 161.962 445.287 162.074 445.571 162.156C445.854 162.237 446.143 162.278 446.437 162.278C446.71 162.278 446.907 162.242 447.029 162.168C447.152 162.095 447.213 161.996 447.213 161.871C447.213 161.731 447.137 161.624 446.983 161.558C446.83 161.49 446.587 161.423 446.255 161.36C445.89 161.284 445.591 161.205 445.356 161.121C445.121 161.037 444.919 160.9 444.748 160.709C444.577 160.518 444.49 160.259 444.49 159.928C444.49 159.636 444.574 159.374 444.743 159.148C444.912 158.919 445.157 158.743 445.474 158.614C445.793 158.487 446.166 158.423 446.598 158.423C446.914 158.423 447.221 158.456 447.522 158.525C447.821 158.593 448.082 158.695 448.299 158.83L447.882 159.781C447.489 159.542 447.045 159.422 446.549 159.422C446.283 159.422 446.084 159.463 445.956 159.539C445.829 159.618 445.765 159.722 445.765 159.852C445.765 159.992 445.841 160.096 445.995 160.162C446.148 160.228 446.391 160.292 446.723 160.358C447.083 160.434 447.382 160.513 447.617 160.597C447.854 160.681 448.059 160.816 448.23 161.004C448.401 161.192 448.488 161.444 448.488 161.764C448.488 162.062 448.404 162.326 448.237 162.552C448.071 162.781 447.826 162.957 447.507 163.086C447.185 163.213 446.804 163.277 446.363 163.277C445.982 163.277 445.609 163.231 445.246 163.14H445.249Z" fill="white"/>
<path d="M449.308 158.51H450.6V163.188H449.308V158.51Z" fill="white"/>
<path d="M454.938 160.788H456.115V162.685C455.86 162.875 455.556 163.02 455.208 163.124C454.859 163.229 454.516 163.28 454.179 163.28C453.661 163.28 453.201 163.175 452.795 162.967C452.388 162.758 452.072 162.468 451.847 162.1C451.62 161.731 451.507 161.317 451.507 160.854C451.507 160.391 451.622 159.977 451.849 159.605C452.079 159.234 452.396 158.944 452.802 158.736C453.208 158.527 453.666 158.423 454.171 158.423C455.076 158.423 455.76 158.703 456.223 159.262L455.372 160.02C455.06 159.656 454.667 159.476 454.187 159.476C453.783 159.476 453.451 159.603 453.193 159.857C452.935 160.111 452.805 160.447 452.805 160.859C452.805 161.271 452.935 161.596 453.193 161.851C453.451 162.105 453.788 162.232 454.202 162.232C454.463 162.232 454.708 162.184 454.938 162.085V160.79V160.788Z" fill="white"/>
<path d="M461.732 158.51V163.188H460.67L458.504 160.61V163.188H457.237V158.51H458.299L460.465 161.098V158.51H461.732Z" fill="white"/>
<path d="M465.842 162.718C465.449 162.344 465.255 161.828 465.255 161.172V158.512H466.548V161.131C466.548 161.495 466.627 161.769 466.788 161.952C466.949 162.138 467.184 162.229 467.495 162.229C467.807 162.229 468.032 162.138 468.19 161.952C468.348 161.769 468.428 161.495 468.428 161.131V158.512H469.702V161.172C469.702 161.828 469.506 162.344 469.115 162.718C468.721 163.091 468.177 163.28 467.48 163.28C466.783 163.28 466.238 163.091 465.845 162.718H465.842Z" fill="white"/>
<path d="M474.596 158.97C474.977 159.275 475.169 159.697 475.169 160.236C475.169 160.775 474.977 161.187 474.596 161.492C474.216 161.8 473.7 161.952 473.051 161.952H472.2V163.188H470.908V158.51H473.049C473.697 158.51 474.211 158.662 474.594 158.97H474.596ZM473.641 160.773C473.794 160.648 473.871 160.47 473.871 160.236C473.871 160.002 473.794 159.824 473.641 159.7C473.488 159.575 473.263 159.511 472.962 159.511H472.2V160.961H472.962C473.261 160.961 473.488 160.897 473.641 160.773Z" fill="white"/>
<path d="M406.386 97.3538L451.469 97.3589C451.806 97.3589 452.092 97.13 452.164 96.802C452.235 96.474 452.072 96.1486 451.765 96.0087L429.084 85.7313C428.985 85.6856 428.872 85.6856 428.775 85.7313L406.092 96.0036C405.786 96.1435 405.622 96.4689 405.694 96.7969C405.765 97.1249 406.051 97.3538 406.386 97.3538V97.3538Z" stroke="white" stroke-linecap="round" stroke-linejoin="round"/>
<path d="M453.617 126.335H449.9C450.151 126.017 450.301 125.618 450.301 125.186C450.301 124.158 449.464 123.324 448.432 123.324H447.497L447.499 102.854H448.434C449.466 102.854 450.304 102.02 450.304 100.992C450.304 99.9651 449.466 99.1311 448.434 99.1311H440.245C439.213 99.1311 438.375 99.9651 438.375 100.992C438.375 102.02 439.213 102.854 440.245 102.854H441.18L441.177 123.324H440.242C439.21 123.324 438.372 124.158 438.372 125.186C438.372 125.618 438.523 126.017 438.773 126.335H434.114C434.364 126.017 434.515 125.618 434.515 125.186C434.515 124.158 433.677 123.324 432.645 123.324H431.71L431.713 102.854H432.648C433.68 102.854 434.518 102.02 434.518 100.992C434.518 99.9651 433.68 99.1311 432.648 99.1311H424.458C423.426 99.1311 422.589 99.9651 422.589 100.992C422.589 102.02 423.426 102.854 424.458 102.854H425.393L425.391 123.324H424.456C423.424 123.324 422.586 124.158 422.586 125.186C422.586 125.618 422.737 126.017 422.987 126.335H418.328C418.578 126.017 418.729 125.618 418.729 125.186C418.729 124.158 417.891 123.324 416.859 123.324H415.924L415.927 102.854H416.862C417.894 102.854 418.731 102.02 418.731 100.992C418.731 99.9651 417.894 99.1311 416.862 99.1311H408.672C407.64 99.1311 406.802 99.9651 406.802 100.992C406.802 102.02 407.64 102.854 408.672 102.854H409.607L409.604 123.324H408.67C407.638 123.324 406.8 124.158 406.8 125.186C406.8 125.618 406.95 126.017 407.201 126.335H403.89V128.862L453.627 128.87V126.34L453.617 126.335Z" stroke="white" stroke-linecap="round" stroke-linejoin="round"/>
<path d="M449.9 126.335L438.771 126.332" stroke="white" stroke-linecap="round" stroke-linejoin="round"/>
<path d="M434.112 126.332H422.982" stroke="white" stroke-linecap="round" stroke-linejoin="round"/>
<path d="M418.323 126.33H406.713" stroke="white" stroke-linecap="round" stroke-linejoin="round"/>
<path d="M447.499 102.854L441.18 102.851" stroke="white" stroke-linecap="round" stroke-linejoin="round"/>
<path d="M431.71 102.851L425.388 102.848" stroke="white" stroke-linecap="round" stroke-linejoin="round"/>
<path d="M415.922 102.848H409.599" stroke="white" stroke-linecap="round" stroke-linejoin="round"/>
<path d="M430.821 92.0702C430.821 93.3186 429.805 94.3306 428.551 94.3306C427.296 94.3306 426.28 93.3186 426.28 92.0702C426.28 90.8217 427.296 89.8097 428.551 89.8097C429.805 89.8097 430.821 90.8217 430.821 92.0702V92.0702Z" stroke="white" stroke-linecap="round" stroke-linejoin="round"/>
<path d="M447.497 123.324L441.177 123.322" stroke="white" stroke-linecap="round" stroke-linejoin="round"/>
<path d="M431.708 123.322H425.386" stroke="white" stroke-linecap="round" stroke-linejoin="round"/>
<path d="M415.919 123.319H409.597" stroke="white" stroke-linecap="round" stroke-linejoin="round"/>
<path d="M422.216 215.012H284.172C277.13 215.012 271.421 220.695 271.421 227.705V304.9C271.421 311.91 277.13 317.593 284.172 317.593H422.216C429.258 317.593 434.967 311.91 434.967 304.9V227.705C434.967 220.695 429.258 215.012 422.216 215.012Z" fill="#FF5963" stroke="white" stroke-linecap="round" stroke-linejoin="round"/>
<path d="M337.289 284.027C337.289 285.144 336.38 286.046 335.261 286.046C334.142 286.046 333.233 285.141 333.233 284.027C333.233 282.911 334.142 282.009 335.261 282.009C336.38 282.009 337.289 282.914 337.289 284.027Z" fill="white"/>
<path d="M344.01 284.027C344.01 285.144 343.1 286.046 341.981 286.046C340.863 286.046 339.953 285.141 339.953 284.027C339.953 282.914 340.863 282.009 341.981 282.009C343.1 282.009 344.01 282.914 344.01 284.027Z" fill="white"/>
<path d="M362.79 284.027C362.79 285.144 361.88 286.046 360.761 286.046C359.643 286.046 358.733 285.141 358.733 284.027C358.733 282.914 359.643 282.009 360.761 282.009C361.88 282.009 362.79 282.914 362.79 284.027Z" fill="white"/>
<path d="M369.514 284.187C369.597 283.075 368.758 282.107 367.641 282.025C366.524 281.942 365.551 282.777 365.469 283.889C365.386 285.001 366.225 285.969 367.342 286.051C368.459 286.134 369.431 285.299 369.514 284.187Z" fill="white"/>
<path d="M355.382 279.405L349.108 288.327" stroke="white" stroke-linecap="round" stroke-linejoin="round"/>
<path d="M287.488 302.233H310.874" stroke="white" stroke-linecap="round" stroke-linejoin="round"/>
<path d="M317.84 302.233H350.894" stroke="white" stroke-linecap="round" stroke-linejoin="round"/>
<path d="M286.683 270.645C286.683 271.762 285.774 272.664 284.655 272.664C283.536 272.664 282.627 271.762 282.627 270.645C282.627 269.529 283.534 268.627 284.655 268.627C285.777 268.627 286.683 269.532 286.683 270.645Z" fill="white"/>
<path d="M293.404 270.645C293.404 271.762 292.495 272.664 291.376 272.664C290.257 272.664 289.348 271.762 289.348 270.645C289.348 269.529 290.257 268.627 291.376 268.627C292.495 268.627 293.404 269.532 293.404 270.645Z" fill="white"/>
<path d="M300.125 270.645C300.125 271.762 299.215 272.664 298.097 272.664C296.978 272.664 296.068 271.762 296.068 270.645C296.068 269.529 296.978 268.627 298.097 268.627C299.215 268.627 300.125 269.532 300.125 270.645Z" fill="white"/>
<path d="M306.785 271.097C307.042 270.012 306.367 268.924 305.277 268.668C304.186 268.412 303.094 269.084 302.837 270.169C302.579 271.254 303.255 272.342 304.345 272.598C305.435 272.854 306.527 272.182 306.785 271.097Z" fill="white"/>
<path d="M323.845 270.645C323.845 271.762 322.936 272.664 321.817 272.664C320.698 272.664 319.789 271.762 319.789 270.645C319.789 269.529 320.698 268.627 321.817 268.627C322.936 268.627 323.845 269.532 323.845 270.645Z" fill="white"/>
<path d="M330.566 270.645C330.566 271.762 329.656 272.664 328.538 272.664C327.419 272.664 326.509 271.762 326.509 270.645C326.509 269.529 327.416 268.627 328.538 268.627C329.659 268.627 330.566 269.532 330.566 270.645Z" fill="white"/>
<path d="M337.289 270.645C337.289 271.762 336.38 272.664 335.261 272.664C334.142 272.664 333.233 271.762 333.233 270.645C333.233 269.529 334.142 268.627 335.261 268.627C336.38 268.627 337.289 269.532 337.289 270.645Z" fill="white"/>
<path d="M344.01 270.645C344.01 271.762 343.1 272.664 341.981 272.664C340.863 272.664 339.953 271.762 339.953 270.645C339.953 269.529 340.863 268.627 341.981 268.627C343.1 268.627 344.01 269.532 344.01 270.645Z" fill="white"/>
<path d="M362.664 271.341C363.05 270.294 362.51 269.134 361.459 268.75C360.407 268.366 359.242 268.904 358.856 269.951C358.47 270.997 359.01 272.157 360.062 272.541C361.113 272.925 362.279 272.388 362.664 271.341Z" fill="white"/>
<path d="M369.51 270.645C369.51 271.762 368.601 272.664 367.482 272.664C366.363 272.664 365.454 271.762 365.454 270.645C365.454 269.529 366.363 268.627 367.482 268.627C368.601 268.627 369.51 269.532 369.51 270.645Z" fill="white"/>
<path d="M337.289 270.645C337.289 271.762 336.38 272.664 335.261 272.664C334.142 272.664 333.233 271.762 333.233 270.645C333.233 269.529 334.142 268.627 335.261 268.627C336.38 268.627 337.289 269.532 337.289 270.645Z" fill="white"/>
<path d="M344.01 270.645C344.01 271.762 343.1 272.664 341.981 272.664C340.863 272.664 339.953 271.762 339.953 270.645C339.953 269.529 340.863 268.627 341.981 268.627C343.1 268.627 344.01 269.532 344.01 270.645Z" fill="white"/>
<path d="M337.289 270.645C337.289 271.762 336.38 272.664 335.261 272.664C334.142 272.664 333.233 271.762 333.233 270.645C333.233 269.529 334.142 268.627 335.261 268.627C336.38 268.627 337.289 269.532 337.289 270.645Z" fill="white"/>
<path d="M344.01 270.645C344.01 271.762 343.1 272.664 341.981 272.664C340.863 272.664 339.953 271.762 339.953 270.645C339.953 269.529 340.863 268.627 341.981 268.627C343.1 268.627 344.01 269.532 344.01 270.645Z" fill="white"/>
<path d="M376.234 270.645C376.234 271.762 375.324 272.664 374.205 272.664C373.087 272.664 372.177 271.762 372.177 270.645C372.177 269.529 373.087 268.627 374.205 268.627C375.324 268.627 376.234 269.532 376.234 270.645Z" fill="white"/>
<path d="M382.799 271.418C383.228 270.388 382.736 269.207 381.701 268.781C380.666 268.354 379.48 268.843 379.051 269.873C378.623 270.903 379.114 272.084 380.149 272.511C381.184 272.938 382.37 272.449 382.799 271.418Z" fill="white"/>
<path d="M402.498 270.645C402.498 271.762 401.589 272.664 400.47 272.664C399.351 272.664 398.442 271.762 398.442 270.645C398.442 269.529 399.351 268.627 400.47 268.627C401.589 268.627 402.498 269.532 402.498 270.645Z" fill="white"/>
<path d="M409.219 270.645C409.219 271.762 408.309 272.664 407.191 272.664C406.072 272.664 405.162 271.762 405.162 270.645C405.162 269.529 406.072 268.627 407.191 268.627C408.309 268.627 409.219 269.532 409.219 270.645Z" fill="white"/>
<path d="M415.939 270.645C415.939 271.762 415.03 272.664 413.911 272.664C412.792 272.664 411.883 271.762 411.883 270.645C411.883 269.529 412.792 268.627 413.911 268.627C415.03 268.627 415.939 269.532 415.939 270.645Z" fill="white"/>
<path d="M422.663 270.645C422.663 271.762 421.753 272.664 420.634 272.664C419.516 272.664 418.606 271.762 418.606 270.645C418.606 269.529 419.516 268.627 420.634 268.627C421.753 268.627 422.663 269.532 422.663 270.645Z" fill="white"/>
<path d="M304.69 253.683H286.714C284.456 253.683 282.624 251.86 282.624 249.613V239.912C282.624 237.665 284.456 235.842 286.714 235.842H304.69C306.948 235.842 308.779 237.665 308.779 239.912V249.613C308.779 251.86 306.948 253.683 304.69 253.683Z" stroke="white" stroke-linecap="round" stroke-linejoin="round"/>
<path d="M288.083 235.842V237.497C288.083 239.188 289.46 240.558 291.159 240.558H308.782" stroke="white" stroke-linecap="round" stroke-linejoin="round"/>
<path d="M308.779 244.764H282.627" stroke="white" stroke-linecap="round" stroke-linejoin="round"/>
<path d="M303.323 253.683V252.028C303.323 250.337 301.946 248.967 300.247 248.967H282.624" stroke="white" stroke-linecap="round" stroke-linejoin="round"/>
<path d="M295.703 240.558V248.969" stroke="white" stroke-linecap="round" stroke-linejoin="round"/>
<path d="M144.701 282.517C144.701 282.517 165.359 249.615 195.772 214.15C210.71 196.733 231.219 178.157 262.715 173.671C316.23 173.671 293.721 211.722 293.721 211.722C293.721 211.722 258.071 203.375 228.338 235.323C207.734 264.846 182.742 301.124 182.742 301.124L144.701 282.52V282.517Z" fill="#15B1FF"/>
<path d="M179.894 283.277C191.388 266.071 244.674 205.475 244.674 205.475" stroke="#5C63C6" stroke-width="2" stroke-linecap="round" stroke-linejoin="round"/>
<path d="M144.701 274.014C148.862 274.014 168.164 273.236 184.44 290.598" stroke="#5C63C6" stroke-width="2" stroke-linecap="round" stroke-linejoin="round"/>
<path d="M278.282 176.669C264.529 176.374 246.398 214.791 240.615 227.248C255.967 211.094 299.315 216.556 299.315 216.556C299.315 216.556 296.334 194.292 290.398 184.465C287.698 181.073 283.815 178.261 278.279 176.669H278.282Z" fill="#2E2E2E"/>
<path d="M340.255 104.761C329.158 99.7871 313.025 105.19 310.848 89.7462C310.327 86.0517 311.134 84.9863 311.157 86.8476C311.145 88.8029 311.615 90.8039 312.552 92.5406L312.728 92.866L312.92 93.1838C313.042 93.3974 313.188 93.5983 313.326 93.7992C313.617 94.1958 313.921 94.5823 314.258 94.9408C314.588 95.3044 314.94 95.6426 315.311 95.963C315.681 96.2808 316.077 96.5681 316.478 96.8453C318.093 97.9208 319.96 98.6378 321.865 98.7675C320.013 98.3276 318.322 97.4479 316.877 96.3037C316.519 96.0113 316.172 95.7112 315.85 95.3832C315.523 95.0603 315.211 94.7272 314.928 94.3687C314.35 93.6619 313.868 92.8889 313.469 92.0778C313.065 91.2692 312.787 90.4047 312.595 89.5275C312.399 88.6452 312.322 87.7553 312.32 86.8374C312.32 85.8737 312.274 84.9075 312.189 83.9439C312.268 84.3837 312.343 84.8211 312.409 85.2635L312.677 86.9493C312.787 87.5239 312.912 88.0985 313.091 88.6605C313.262 89.2249 313.464 89.7792 313.712 90.3157C313.954 90.8548 314.233 91.3786 314.557 91.8744C315.829 93.878 317.692 95.4621 319.763 96.5249C321.835 97.6055 324.093 98.2285 326.359 98.5692C327.495 98.7319 328.637 98.8336 329.779 98.8565C330.921 98.8819 332.065 98.8463 333.194 98.7166C332.625 98.7268 332.058 98.7065 331.493 98.676C330.926 98.6455 330.361 98.6022 329.799 98.5437C328.675 98.4242 327.557 98.259 326.458 98.02C324.259 97.5572 322.118 96.83 320.195 95.7418C318.284 94.6459 316.603 93.161 315.487 91.2997C314.928 90.3742 314.483 89.38 314.179 88.3376C314.021 87.8189 313.908 87.2849 313.809 86.7509L313.558 85.083C313.209 82.8276 312.761 80.5672 312.013 78.3958C309.134 70.0407 304.181 66.2394 299.675 64.0807C299.675 64.0807 282.882 94.8061 295.759 115.971C310.049 139.46 342.674 147.594 351.195 133.284C358.184 121.55 351.354 109.729 340.257 104.755L340.255 104.761Z" fill="#362E8B"/>
<path d="M285.383 105.19C269.635 105.953 270.514 103.525 236.949 117.903C239.358 137.067 248.684 146.707 248.684 146.707C248.684 146.707 258.084 140.609 263.29 139.025C285.061 120.774 285.383 105.19 285.383 105.19Z" fill="#FF8B88"/>
<path d="M225.822 202.085C229.894 194.409 263.975 206.36 259.898 219.431C257.995 225.534 222.644 215.345 225.822 202.085Z" fill="#2E2E2E" stroke="#5C63C6" stroke-width="2" stroke-linecap="round" stroke-linejoin="round"/>
<path d="M235.897 280.328C234.811 280.328 233.725 280.201 232.65 279.939C229.028 279.051 225.98 276.677 224.07 273.247C221.546 268.718 221.183 262.819 223.076 257.063C226.455 246.788 235.746 240.368 244.226 242.445C247.849 243.332 250.896 245.707 252.807 249.135C255.331 253.663 255.693 259.562 253.8 265.319C250.85 274.292 243.389 280.325 235.894 280.328H235.897ZM241.016 251.548C237.961 251.548 233.879 254.711 232.134 260.015C231.079 263.223 231.179 266.45 232.402 268.647C233.03 269.773 233.879 270.473 234.926 270.729C238.022 271.487 242.814 268.24 244.745 262.372C245.8 259.163 245.7 255.936 244.477 253.739C243.848 252.613 243 251.914 241.953 251.657C241.654 251.583 241.343 251.548 241.016 251.548Z" fill="#5C63C6"/>
<path d="M265.336 324.209C264.251 324.209 263.162 324.082 262.09 323.82C258.467 322.932 255.42 320.558 253.509 317.13C250.985 312.602 250.623 306.703 252.516 300.946C255.895 290.671 265.188 284.251 273.666 286.329C277.288 287.216 280.336 289.591 282.246 293.018C284.77 297.547 285.133 303.446 283.24 309.202C280.29 318.175 272.828 324.209 265.336 324.211V324.209ZM270.455 295.429C267.4 295.429 263.318 298.592 261.574 303.896C260.519 307.105 260.618 310.331 261.842 312.528C262.47 313.654 263.318 314.354 264.365 314.61C267.461 315.368 272.254 312.121 274.182 306.253C275.237 303.044 275.137 299.817 273.914 297.62C273.286 296.494 272.437 295.795 271.39 295.538C271.091 295.464 270.78 295.429 270.453 295.429H270.455Z" fill="#5C63C6"/>
<path d="M231.23 318.526L224.734 313.883C224.389 313.637 224.312 313.161 224.557 312.818L273.329 245.222C273.577 244.878 274.054 244.802 274.399 245.046L280.895 249.689C281.24 249.936 281.317 250.411 281.071 250.754L232.3 318.351C232.052 318.694 231.574 318.77 231.23 318.526Z" fill="#5C63C6"/>
<path d="M232.065 280.582C230.979 280.582 229.894 280.455 228.818 280.193C225.196 279.306 222.149 276.931 220.238 273.501C217.714 268.972 217.352 263.073 219.244 257.317C222.624 247.042 231.914 240.622 240.395 242.699C244.017 243.587 247.064 245.961 248.975 249.389C251.499 253.917 251.862 259.816 249.969 265.573C247.018 274.546 239.557 280.58 232.062 280.582H232.065ZM237.184 251.802C234.129 251.802 230.047 254.965 228.302 260.269C227.247 263.478 227.347 266.704 228.571 268.901C229.199 270.028 230.047 270.727 231.094 270.984C234.19 271.741 238.982 268.494 240.913 262.626C241.968 259.417 241.869 256.191 240.645 253.994C240.017 252.867 239.169 252.168 238.121 251.911C237.823 251.838 237.511 251.802 237.184 251.802Z" fill="white"/>
<path d="M261.505 324.463C260.419 324.463 259.331 324.336 258.258 324.074C254.636 323.187 251.588 320.812 249.678 317.384C247.154 312.856 246.791 306.957 248.684 301.2C252.063 290.926 261.356 284.505 269.835 286.583C273.457 287.47 276.504 289.845 278.415 293.272C280.939 297.801 281.301 303.7 279.408 309.456C276.458 318.429 268.997 324.463 261.505 324.466V324.463ZM266.624 295.683C263.569 295.683 259.487 298.846 257.742 304.15C256.687 307.359 256.787 310.585 258.01 312.782C258.639 313.909 259.487 314.608 260.534 314.865C263.63 315.622 268.422 312.375 270.351 306.507C271.405 303.298 271.306 300.072 270.082 297.875C269.454 296.748 268.606 296.049 267.559 295.792C267.26 295.719 266.948 295.683 266.621 295.683H266.624Z" fill="white"/>
<path d="M227.398 318.78L220.902 314.137C220.557 313.891 220.481 313.415 220.726 313.072L269.497 245.476C269.745 245.133 270.223 245.056 270.568 245.3L277.064 249.943C277.408 250.19 277.485 250.665 277.24 251.009L228.468 318.605C228.221 318.948 227.743 319.024 227.398 318.78Z" fill="white"/>
<path d="M224.044 218.577C226.547 214.511 229.028 202.594 229.028 202.594C233.518 201.6 247.524 207.799 251.66 213.11C249.762 218.773 248.089 224.054 248.26 224.72C255.177 241.957 210.633 252.438 205.445 245.829C200.257 239.223 215.17 232.984 224.044 218.577Z" fill="#FDB78F"/>
<path d="M217.926 243.579C231.738 240.98 247.481 223.314 248.661 222.648C250.727 221.883 252.541 229.785 250.311 234.415C246.937 241.423 240.883 237.032 231.62 247.825C223.124 257.724 209.497 259.196 201.325 255.524C195.036 252.699 194.985 249.452 202.446 241.128C203.946 239.455 205.548 237.756 207.159 236.065C207.599 235.603 204.115 246.175 217.926 243.579Z" fill="white" stroke="#5C63C6" stroke-width="2" stroke-linecap="round" stroke-linejoin="round"/>
<path d="M250.472 151.756C252.978 138.852 263.765 126.05 270.402 123.246L274.961 129.704C274.356 132.069 273.965 134.593 273.863 137.271C273.863 137.281 273.863 137.294 273.863 137.304C273.842 137.881 273.832 138.466 273.84 139.058C273.84 139.079 273.84 139.099 273.84 139.119C273.842 139.402 273.85 139.684 273.86 139.969C273.86 140.009 273.863 140.047 273.865 140.088C273.876 140.375 273.891 140.663 273.909 140.955C273.909 140.955 273.909 140.958 273.909 140.96C273.927 141.242 273.947 141.53 273.973 141.815C273.978 141.863 273.98 141.909 273.985 141.957C274.008 142.234 274.037 142.514 274.067 142.793C274.072 142.847 274.08 142.903 274.085 142.956C274.118 143.246 274.154 143.536 274.192 143.828C269.574 146.699 255.882 156.664 255.882 156.664C255.882 156.664 253.336 154.884 250.477 151.756H250.472Z" fill="#2E2E2E"/>
<path d="M316.823 109.94C353.019 110.891 381.945 186.977 399.79 199.96C420.512 215.038 425.342 215.668 405.76 217.83C399.65 218.503 394.426 215.755 388.451 213.281C385.401 212.017 387.486 222.193 380.576 220.98C379.6 220.81 381.984 210.901 379.577 207.845C374.956 201.974 365.147 193.72 357.405 184.246C339.818 162.723 328.359 140.838 317.234 138.565C304.151 135.89 316.823 109.94 316.823 109.94Z" fill="#FDB78F"/>
<path d="M176.537 117.131C183.46 124.214 188.678 131.558 192.344 138.809" stroke="white" stroke-linecap="round" stroke-linejoin="round"/>
<path d="M252.061 179.73C253.323 160.673 259.842 138.415 272.044 119.068C277.092 111.066 286.167 104.01 294.104 104.656C303.596 105.429 309.086 105.256 320.1 108.77C335.856 113.8 341.23 118.237 363.924 144.99C359.088 151.609 346.592 158.83 333.894 162.468C333.894 161.802 326.612 152.527 326.612 152.527C326.612 152.527 333.907 177.284 336.936 183.542C339.473 188.782 336.206 191.498 334.05 189.695C321.835 179.474 251.522 187.903 252.061 179.728V179.73Z" fill="#FF8B88"/>
<path d="M363.17 139.953C357.576 146.602 350.516 151.693 333.263 157.775" stroke="white" stroke-linecap="round" stroke-linejoin="round"/>
<path d="M240.27 117.878C242.354 125.948 243.8 135.27 250.102 142.219" stroke="white" stroke-linecap="round" stroke-linejoin="round"/>
<path d="M322.461 145.484L326.609 152.527C326.609 152.527 333.904 177.284 336.934 183.542C323.993 167.75 322.461 145.481 322.461 145.481V145.484Z" fill="#2E2E2E"/>
<path d="M306.958 106.454C306.958 106.454 310.738 107.835 304.296 113.639C287.284 128.969 265.275 123.8 282.428 107.42" stroke="white" stroke-linecap="round" stroke-linejoin="round"/>
<path d="M412.948 214.9C405.012 211.966 402.932 209.703 402.932 209.703" stroke="#E58863" stroke-width="4" stroke-linecap="round" stroke-linejoin="round"/>
<path d="M406.468 215.656C398.414 213.054 394.679 209.551 394.679 209.551" stroke="#E58863" stroke-width="4" stroke-linecap="round" stroke-linejoin="round"/>
<path d="M413.104 211.656C411.114 210.83 409.502 210.041 408.212 209.332" stroke="#E58863" stroke-width="4" stroke-linecap="round" stroke-linejoin="round"/>
<path d="M191.92 126.843C195.394 132.114 198.096 137.403 200.081 142.593" stroke="white" stroke-linecap="round" stroke-linejoin="round"/>
<path d="M334.047 189.695C337.601 196.827 340.771 217.479 309.957 217.479C279.143 217.479 281.455 198.864 268.639 187.236L259.898 219.431C258.917 204.315 229.613 198.005 225.822 202.085C225.822 202.085 230.808 181.777 236.172 165.509C241.703 148.728 248.922 129.864 261.075 129.862C277.922 129.862 309.959 172.977 309.959 172.977L317.485 183.397C317.485 183.397 330.75 185.955 334.05 189.695H334.047Z" fill="#15B1FF" stroke="#5C63C6" stroke-width="2" stroke-linecap="round" stroke-linejoin="round"/>
<path d="M258.769 196.733C262.01 184.549 270.276 155.057 273.063 155.12C279.156 155.26 310.348 190.511 316.705 198.805" stroke="#5C63C6" stroke-width="2" stroke-linecap="round" stroke-linejoin="round"/>
<path d="M249.997 197.321C241.608 192.584 228.312 191.47 225.066 193.608" stroke="#5C63C6" stroke-width="2" stroke-linecap="round" stroke-linejoin="round"/>
<path d="M260.792 206.779C258.861 203.474 256.115 200.906 252.983 198.953" stroke="#5C63C6" stroke-width="2" stroke-linecap="round" stroke-linejoin="round"/>
<path d="M268.642 187.239L274.282 165.509" stroke="#5C63C6" stroke-width="2" stroke-linecap="round" stroke-linejoin="round"/>
<path d="M309.957 172.977L321.025 188.302" stroke="#5C63C6" stroke-width="2" stroke-linecap="round" stroke-linejoin="round"/>
<path d="M144.701 282.517C150.229 276.12 182.565 290.895 182.742 301.122C174.488 307.913 144.717 293.13 144.701 282.517Z" fill="#2E2E2E" stroke="#5C63C6" stroke-width="2" stroke-linecap="round" stroke-linejoin="round"/>
<path d="M155.777 310.153L170.452 292.657C169.221 288.238 148.806 279.212 146.755 283.071C140.647 299.065 115.366 309.871 115.366 309.871C115.366 309.871 102.474 319.182 120.212 320.095C130.305 320.614 155.777 310.156 155.777 310.156V310.153Z" fill="#FDB78F"/>
<path d="M158.342 324.613C158.5 323.558 159.264 316.683 156.822 310.232C152.176 305.449 135.965 319.195 120.851 315.124C114.033 313.288 115.366 309.871 115.366 309.871C107.323 312.142 97.1662 314.669 97.2224 317.776C97.0436 318.168 97.5801 318.918 98.4537 319.79C101.585 322.912 105.872 324.616 110.304 324.616H158.342V324.613Z" fill="white" stroke="#5C63C6" stroke-width="2" stroke-linecap="round" stroke-linejoin="round"/>
<path d="M299.68 88.9046C300.089 93.8678 298.526 100.013 299.989 105.264C300.973 105.676 305.042 106.057 306.064 107.448C306.958 108.663 305.101 113.222 299.215 116.413C280.647 126.482 271.329 120.133 282.428 109.114C284.351 106.497 285.335 104.941 285.102 95.6502L299.678 88.902L299.68 88.9046Z" fill="#FDB78F"/>
<path d="M292.009 94.2238L285.674 94.8594C285.307 97.5013 284.959 99.3574 284.584 100.702C286.617 100.115 290.656 97.5063 292.009 94.2238Z" fill="#2E2E2E"/>
<path d="M290.272 65.7665C288.855 65.6749 287.457 65.7334 286.111 66.0182C285.439 66.1707 284.78 66.3538 284.144 66.6081C283.508 66.8547 282.89 67.1471 282.303 67.498C281.71 67.8362 281.148 68.2277 280.617 68.66C280.078 69.0821 279.585 69.5601 279.11 70.0585C278.175 71.0679 277.378 72.2121 276.757 73.4834C277.071 72.1002 277.756 70.7958 278.647 69.6669C279.089 69.0948 279.6 68.5812 280.142 68.0981C280.691 67.6251 281.283 67.2031 281.909 66.8293C282.54 66.4708 283.202 66.158 283.889 65.9216C284.579 65.6902 285.286 65.5097 286.007 65.4232C287.445 65.235 288.911 65.3571 290.27 65.7639L290.272 65.7665Z" fill="#2E2E2E"/>
<path d="M357.111 128.621C357.188 126.009 356.817 123.439 355.954 121.046C355.515 119.854 354.991 118.694 354.35 117.598C353.719 116.497 353.001 115.445 352.199 114.456C350.608 112.467 348.751 110.682 346.73 109.083C344.707 107.484 342.528 106.07 340.26 104.761C342.735 105.633 345.095 106.853 347.274 108.356C349.448 109.859 351.453 111.646 353.114 113.734C353.936 114.781 354.687 115.892 355.318 117.069C355.936 118.252 356.468 119.488 356.823 120.774C357.563 123.335 357.676 126.068 357.116 128.623L357.111 128.621Z" fill="#362E8B"/>
<path d="M351.205 110.141C350.26 109.35 349.325 108.567 348.342 107.855C347.358 107.143 346.339 106.495 345.284 105.917C344.224 105.353 343.139 104.847 342.01 104.458C340.886 104.059 339.728 103.746 338.551 103.532C336.196 103.08 333.772 102.94 331.324 102.8C328.88 102.66 326.389 102.492 323.993 101.88C326.456 102.012 328.885 101.92 331.345 101.895C333.797 101.864 336.3 101.913 338.771 102.393C340.002 102.64 341.22 102.973 342.395 103.431C343.563 103.899 344.697 104.455 345.747 105.139C346.804 105.808 347.785 106.584 348.705 107.415C349.606 108.267 350.449 109.172 351.205 110.138V110.141Z" fill="#362E8B"/>
<path d="M293.419 66.6793C284.492 62.2042 274.66 71.1772 278.402 79.8782C282.144 88.5817 293.419 66.6793 293.419 66.6793Z" fill="#2E2E2E"/>
<path d="M299.292 91.4955C293.634 97.097 282.778 98.231 280.091 94.8264C275.16 88.5816 278.098 75.4667 283.756 69.8652C289.414 64.2638 293.721 65.5249 299.348 71.1569C304.976 76.7888 304.95 85.8941 299.292 91.4955Z" fill="#FDB78F"/>
<path d="M285.526 78.8077C287.708 78.4466 290.099 79.868 290.099 79.868" stroke="#E58863" stroke-linecap="round" stroke-linejoin="round"/>
<path d="M284.367 67.3505C280.9 72.4841 286.387 79.812 293.66 83.7303C295.008 84.4575 297.621 80.6206 299.381 83.6235C300.143 84.9202 300.058 87.6968 297.3 89.1436C298.85 92.749 297.346 104.771 299.938 105.086C307.096 105.95 310.634 82.3166 309.142 76.4303C308.12 72.3977 308.838 69.0821 299.67 64.0883C296.932 62.5958 288.581 61.1032 284.364 67.3531L284.367 67.3505Z" fill="#362E8B"/>
<path d="M280.011 79.4561C281.411 80.0638 281.416 81.091 281.416 81.091C281.416 81.091 280.893 80.2519 280.629 80.7732C280.366 81.2944 279.855 81.7063 279.618 81.0173C279.498 80.6715 279.649 79.9417 279.613 79.896C278.885 78.973 279.227 78.4136 279.227 78.4136C279.227 78.4136 279.526 79.2425 280.011 79.4536V79.4561Z" fill="#010101"/>
<path d="M288.265 82.4056C289.432 82.8607 289.486 83.8498 289.486 83.8498C289.161 84.1829 289.039 82.9573 288.65 83.5447C288.65 83.5447 288.374 84.2566 287.973 84.2947C286.839 84.399 287.253 82.5378 287.182 82.4818C286.471 81.925 286.436 80.9105 286.436 80.9105C286.52 80.9766 287.095 81.9504 288.262 82.4056H288.265Z" fill="#010101"/>
<path d="M281.025 88.3782C284.16 90.5624 286.586 90.3513 287.35 90.0615C288.114 89.7716 288.571 90.0106 287.879 90.8522C287.644 91.1395 287.503 91.2031 287.391 91.1726C287.212 91.1243 287.12 90.926 287.337 90.7378C288.226 89.9776 286.655 91.0378 285.818 91.7422C284.98 92.449 282.844 93.4508 281.148 92.0473C280.714 91.6888 280.435 90.9743 280.527 90.4149C280.573 90.1327 280.752 89.7945 280.663 89.5021C280.494 88.9427 279.304 88.2892 279.715 87.6307C279.871 87.379 280.027 87.6866 281.02 88.3782H281.025Z" fill="#FF5963"/>
<path d="M286.193 90.8599C286.193 90.8599 283.485 92.2049 282.124 91.4243C280.951 90.7505 281.189 89.6038 281.189 89.6038C281.189 89.6038 283.276 90.9514 286.193 90.8599Z" fill="white"/>
<path d="M280.259 75.6802C280.259 75.6802 281.932 77.0355 282.635 78.0576C283.83 79.7968 281.452 83.3794 280.681 84.2007C279.291 85.6754 282.374 87.0382 282.374 87.0382" stroke="#E58863" stroke-linecap="round" stroke-linejoin="round"/>
<path d="M297.404 89.1004C297.918 90.6641 298.209 92.2965 298.306 93.9492C298.398 95.6019 298.286 97.2877 297.89 98.9277C297.494 100.563 296.796 102.159 295.754 103.507C294.717 104.855 293.335 105.93 291.79 106.52C293.059 105.467 294.122 104.277 294.916 102.937C295.718 101.603 296.268 100.141 296.638 98.6251C297.008 97.1072 297.2 95.5383 297.297 93.9466C297.399 92.3549 297.392 90.7429 297.404 89.0978V89.1004Z" fill="#362E8B"/>
<path d="M298.408 93.7966C298.577 94.5035 298.768 95.2129 298.878 95.9223C298.942 96.2782 299.001 96.6342 299.054 96.9902L299.18 98.0581C299.302 99.482 299.369 100.911 299.272 102.325C299.111 105.155 298.947 107.316 298.076 109.978C297.856 110.644 297.632 111.305 297.402 111.961L296.702 113.922C296.24 115.226 295.361 117.133 295.067 118.458C294.937 119.121 294.819 119.788 294.791 120.464C294.735 121.14 294.789 121.824 294.886 122.511C295.098 123.884 295.657 125.262 296.431 126.597C295.353 125.386 294.559 124.003 294.109 122.559C293.685 121.11 293.634 119.627 293.813 118.211C293.997 116.792 294.37 115.427 294.778 114.092C295.192 112.755 295.649 111.445 296.068 110.131C296.927 107.507 297.619 104.857 298.01 102.131C298.418 99.4108 298.48 96.624 298.403 93.7966H298.408Z" fill="#362E8B"/>
<path d="M298.273 90.3946C297.948 91.0633 297.141 91.343 296.472 91.02C295.8 90.6971 295.519 89.8936 295.844 89.2275C296.168 88.5588 296.975 88.2791 297.644 88.602C298.314 88.9249 298.597 89.7284 298.273 90.3946Z" fill="white"/>
</g>
<defs>
<clipPath id="clip0_32_420">
<rect width="571" height="362" fill="white"/>
</clipPath>
<clipPath id="clip1_32_420">
<rect width="417.149" height="286.376" fill="white" transform="translate(96.4203 39)"/>
</clipPath>
</defs>
</svg>
