<svg width="86" height="86" viewBox="0 0 86 86" fill="none" xmlns="http://www.w3.org/2000/svg">
<g clip-path="url(#clip0_29_491)">
<path d="M73.4057 73.4056C90.1983 56.613 90.1983 29.387 73.4057 12.5944C56.6132 -4.19813 29.3871 -4.19814 12.5946 12.5944C-4.19799 29.387 -4.19799 56.613 12.5946 73.4056C29.3871 90.1981 56.6132 90.1981 73.4057 73.4056Z" fill="#D32630"/>
<path d="M57.8296 26.3691L65.1543 26.4162C65.8644 26.4207 66.4367 27.0003 66.4322 27.7112L66.2501 55.9079C66.2456 56.6179 65.666 57.1902 64.9551 57.1857L57.6304 57.1386C56.9204 57.1341 56.348 56.5545 56.3526 55.8436L56.5346 27.6469C56.5391 26.9369 57.1187 26.3646 57.8296 26.3691Z" fill="white"/>
<path d="M24.5732 58.2489L37.7799 58.334C36.0085 64.7758 34.8367 72.8684 40.0105 73.7125C42.2872 74.0838 44.1628 72.3912 44.1746 70.5527C44.1746 70.5527 45.6951 62.1386 52.6557 57.7744C52.9573 57.5923 53.2308 57.375 53.4735 57.1305C53.4898 57.1178 53.4998 57.1096 53.4998 57.1096C53.4998 57.1096 53.4971 57.1078 53.4962 57.1078C54.1319 56.4585 54.5358 55.6145 54.5929 54.6817C54.5983 54.6201 54.6037 54.5585 54.6037 54.496V54.4824L54.7595 30.4308C54.7722 28.4104 53.0098 26.7603 50.8219 26.7467L29.4518 26.6082C27.2638 26.5937 25.4797 28.2211 25.4662 30.2415L25.4625 30.8411C25.4498 32.8615 27.2122 34.5116 29.4011 34.5252L26.9541 34.5098C24.6701 34.4953 22.8081 36.1924 22.7946 38.3016L22.7927 38.5805C22.7792 40.6897 24.6194 42.4113 26.9034 42.4258L25.899 42.4195C23.577 42.4041 21.6834 44.1302 21.6698 46.2747V46.4269C21.6553 48.5714 23.5263 50.322 25.8474 50.3365L24.6257 50.3283C22.2584 50.3129 20.3276 52.0726 20.314 54.2596C20.2996 56.4458 22.2077 58.2308 24.575 58.2462L24.5732 58.2489Z" fill="white"/>
</g>
<defs>
<clipPath id="clip0_29_491">
<rect width="86" height="86" fill="white"/>
</clipPath>
</defs>
</svg>
