<svg width="76" height="81" viewBox="0 0 76 81" fill="none" xmlns="http://www.w3.org/2000/svg">
<g style="mix-blend-mode:multiply" opacity="0.16">
<path d="M53.8784 81H24.1606C20.7999 81 17.5744 79.4677 15.1971 76.7371L13.0509 74.2741C11.1038 72.0396 10.0098 69.0069 10.0098 65.8466V13.0318C10.0098 10.2324 11.9864 7.96591 14.4227 7.96591H55.8673L56.5974 77.8421C56.6146 79.5807 55.3928 81.0025 53.8784 81.0025V81Z" fill="#2465A1"/>
</g>
<path d="M55.528 1.36285H22.3119C19.728 1.36285 17.6334 3.45502 17.6334 6.03584V74.7186C17.6334 77.2994 19.728 79.3916 22.3119 79.3916H55.528C58.1118 79.3916 60.2064 77.2994 60.2064 74.7186V6.03584C60.2064 3.45502 58.1118 1.36285 55.528 1.36285Z" fill="#0071D9"/>
<path d="M20.0501 1.53964L18.9684 2.76989V3.60234L20.6967 2.94915L20.0501 1.53964Z" fill="#2465A1"/>
<path d="M59.1296 77.7021L60.3023 76.381L58.5223 75.8212L59.1296 77.7021Z" fill="#2465A1"/>
<path d="M56.7376 0H23.5215C20.9376 0 18.843 2.09217 18.843 4.67298V73.3558C18.843 75.9366 20.9376 78.0287 23.5215 78.0287H56.7376C59.3214 78.0287 61.416 75.9366 61.416 73.3558V4.67298C61.416 2.09217 59.3214 0 56.7376 0Z" fill="#2465A1"/>
<path d="M59.6336 10.0212H20.6254V68.005H59.6336V10.0212Z" fill="#CFE8FF"/>
<path d="M44.1478 6.64483H36.1111C35.7005 6.64483 35.3687 6.31332 35.3687 5.90324C35.3687 5.49316 35.7005 5.16165 36.1111 5.16165H44.1478C44.5584 5.16165 44.8902 5.49316 44.8902 5.90324C44.8902 6.31332 44.5584 6.64483 44.1478 6.64483Z" fill="#2465A1"/>
<path d="M46.2523 73.8223H33.6527C33.2422 73.8223 32.9103 73.4908 32.9103 73.0807C32.9103 72.6706 33.2422 72.3391 33.6527 72.3391H46.2523C46.6629 72.3391 46.9948 72.6706 46.9948 73.0807C46.9948 73.4908 46.6629 73.8223 46.2523 73.8223Z" fill="#0A3760"/>
<path opacity="0.28" d="M20.6254 68.0075L59.6336 10.0212V68.0075H20.6254Z" fill="white"/>
<g style="mix-blend-mode:multiply" opacity="0.13">
<path d="M69.1921 53.1758H59.4566L46.7612 60.2037L49.5294 53.1758H3.88329C2.22138 53.1758 0.874146 51.8301 0.874146 50.1701V17.9847C0.874146 16.3248 2.22138 14.9791 3.88329 14.9791H69.1921C70.854 14.9791 72.2012 16.3248 72.2012 17.9847V50.1701C72.2012 51.8301 70.854 53.1758 69.1921 53.1758Z" fill="black"/>
</g>
<path d="M66.3034 50.315H58.5297L46.7587 60.2036L49.2589 50.315H5.19117C3.63497 50.315 2.37378 49.0553 2.37378 47.5009V17.3855C2.37378 15.8312 3.63497 14.5714 5.19117 14.5714H66.3058C67.862 14.5714 69.1232 15.8312 69.1232 17.3855V47.5033C69.1232 49.0577 67.862 50.3174 66.3058 50.3174L66.3034 50.315Z" fill="#F73C57"/>
<path d="M71.2523 13.1914C71.1146 13.1914 70.9769 13.1398 70.8712 13.0343C70.6598 12.8231 70.6598 12.4818 70.8712 12.273L72.8527 10.2938C73.0641 10.0826 73.4059 10.0826 73.6148 10.2938C73.8263 10.505 73.8263 10.8463 73.6148 11.0551L71.6333 13.0343C71.5276 13.1398 71.3899 13.1914 71.2523 13.1914Z" fill="#F5F5EB"/>
<path d="M75.1611 15.9834H72.7101C72.4126 15.9834 72.1692 15.7428 72.1692 15.4432C72.1692 15.1436 72.4101 14.903 72.7101 14.903H75.1611C75.4586 14.903 75.702 15.1436 75.702 15.4432C75.702 15.7428 75.4611 15.9834 75.1611 15.9834Z" fill="#F5F5EB"/>
<path d="M68.4594 11.7353C68.162 11.7353 67.9186 11.4946 67.9186 11.195V8.7468C67.9186 8.44968 68.1595 8.20657 68.4594 8.20657C68.7594 8.20657 69.0003 8.44722 69.0003 8.7468V11.195C69.0003 11.4921 68.7594 11.7353 68.4594 11.7353Z" fill="#F5F5EB"/>
<path d="M22.2258 28.2368H21.0039V28.8409H22.2258V28.2368Z" fill="#D4D4D9"/>
<path d="M22.6314 28.7795H20.6031V29.3688H22.6314V28.7795Z" fill="#FEFEFF"/>
<path d="M20.6031 28.2687H22.6314V26.9427C22.6314 23.6891 19.9812 21.0419 16.7237 21.0419C13.4663 21.0419 10.816 23.6891 10.816 26.9427V31.5641H12.8443V26.9427C12.8443 24.8063 14.5848 23.0678 16.7237 23.0678C18.8626 23.0678 20.6031 24.8063 20.6031 26.9427V28.2687Z" fill="#FEFEFF"/>
<path d="M10.73 31.0018H22.715C23.0985 31.0018 23.4083 31.3136 23.4083 31.6943V35.7386C23.4083 39.4244 20.4114 42.4178 16.7213 42.4178C13.0312 42.4178 10.0343 39.4244 10.0343 35.7386V31.6943C10.0343 31.3112 10.3465 31.0018 10.7276 31.0018H10.73Z" fill="#FFCC00"/>
<g style="mix-blend-mode:multiply" opacity="0.85">
<path d="M18.1644 35.1812C18.1644 34.3856 17.5203 33.7422 16.7237 33.7422C15.9272 33.7422 15.2831 34.3856 15.2831 35.1812C15.2831 35.7239 15.5879 36.1905 16.0305 36.436V38.1205C16.0305 38.5036 16.3402 38.813 16.7237 38.813C17.1073 38.813 17.417 38.5036 17.417 38.1205V36.436C17.8595 36.1905 18.1644 35.7239 18.1644 35.1812Z" fill="#301300"/>
</g>
<g style="mix-blend-mode:multiply" opacity="0.1">
<path d="M23.4107 31.0018H16.7238V42.4178H23.4107V31.0018Z" fill="#E70013"/>
</g>
<path d="M55.3829 38.813H34.7934C31.6097 38.813 29.0283 36.1806 29.0283 32.9368V32.8189C29.0283 29.5726 31.6097 26.9427 34.7934 26.9427H55.3829C58.5666 26.9427 61.148 29.5751 61.148 32.8189V32.9368C61.148 36.1831 58.5666 38.813 55.3829 38.813Z" fill="#E8E8E8"/>
<path d="M55.5673 38.813H35.6416C32.5611 38.813 30.0634 36.4213 30.0634 33.4697V33.3616C30.0634 30.41 32.5611 28.0182 35.6416 28.0182H55.5673C58.6478 28.0182 61.1456 30.41 61.1456 33.3616V33.4697C61.1456 36.4213 58.6478 38.813 55.5673 38.813Z" fill="white"/>
<path d="M36.1775 30.1104H37.5887L37.3895 32.1805L39.0982 31.0263L39.7841 32.2885L37.9427 33.1038L39.7841 33.9116L39.0982 35.1738L37.3895 34.0197L37.5887 36.0898H36.1775L36.384 34.0197L34.6754 35.1738L33.9895 33.9116L35.8309 33.1038L33.9895 32.2885L34.6754 31.0263L36.384 32.1805L36.1775 30.1104Z" fill="#707070"/>
<path d="M44.8239 30.1104H46.235L46.0359 32.1805L47.7445 31.0263L48.4304 32.2885L46.5891 33.1038L48.4304 33.9116L47.7445 35.1738L46.0359 34.0197L46.235 36.0898H44.8239L45.0304 34.0197L43.3218 35.1738L42.6359 33.9116L44.4772 33.1038L42.6359 32.2885L43.3218 31.0263L45.0304 32.1805L44.8239 30.1104Z" fill="#707070"/>
<path d="M53.4703 30.1104H54.8814L54.6823 32.1805L56.3909 31.0263L57.0768 32.2885L55.2354 33.1038L57.0768 33.9116L56.3909 35.1738L54.6823 34.0197L54.8814 36.0898H53.4703L53.6768 34.0197L51.9681 35.1738L51.2822 33.9116L53.1236 33.1038L51.2822 32.2885L51.9681 31.0263L53.6768 32.1805L53.4703 30.1104Z" fill="#707070"/>
</svg>
